<?xml version="1.0" encoding="iso-8859-1"?>
<!-- Generator: Adobe Illustrator 20.0.0, SVG Export Plug-In . SVG Version: 6.00 Build 0)  -->
<svg version="1.1" id="Layer_1" xmlns="http://www.w3.org/2000/svg" xmlns:xlink="http://www.w3.org/1999/xlink" x="0px" y="0px"
	 viewBox="0 0 56.7 56.7" style="enable-background:new 0 0 56.7 56.7;" xml:space="preserve" height='100px' width='100px'>
<path style="fill:none;stroke:#000000;stroke-width:2;stroke-miterlimit:10;" d="M22.5,52.1c-3.9-2.3-7.8-4.6-11.8-6.8
	s-5.9-5.6-5.8-10.1s0.1-9.1,0-13.6s1.9-7.9,5.8-10.1c4-2.2,7.9-4.5,11.8-6.8s7.8-2.3,11.7,0S42,9.2,46,11.4s5.9,5.6,5.8,10.1
	c-0.1,4.5-0.1,9.1,0,13.6S49.9,43,46,45.2c-4,2.2-7.9,4.5-11.8,6.8C30.3,54.4,26.4,54.4,22.5,52.1z"/>
</svg>
